<svg width="25px" height="25px" viewBox="0 0 25 25" version="1.1" xmlns="http://www.w3.org/2000/svg" xmlns:xlink="http://www.w3.org/1999/xlink">
    <g id="Page-1" stroke="none" stroke-width="1" fill="none" fill-rule="evenodd">
        <g id="Edit-Fish" transform="translate(-7.000000, -50.000000)" fill="#FFFFFF" fill-rule="nonzero">
            <g id="add" transform="translate(7.000000, 50.000000)">
                <path d="M12.5,25 C10.6198864,25 9.09090909,23.4857955 9.09090909,21.6244318 L9.09090909,15.9090909 L3.37556818,15.9090909 C1.51420455,15.9090909 0,14.3801136 0,12.5 C0,10.6198864 1.51420455,9.09090909 3.37556818,9.09090909 L9.09090909,9.09090909 L9.09090909,3.37556818 C9.09090909,1.51420455 10.6198864,0 12.5,0 C14.3801136,0 15.9090909,1.51420455 15.9090909,3.37556818 L15.9090909,9.09090909 L21.6244318,9.09090909 C23.4857955,9.09090909 25,10.6198864 25,12.5 C25,14.3801136 23.4857955,15.9090909 21.6244318,15.9090909 L15.9090909,15.9090909 L15.9090909,21.6244318 C15.9090909,23.4857955 14.3801136,25 12.5,25 Z M3.37556818,10.2272727 C2.16193182,10.2272727 1.13636364,11.2681818 1.13636364,12.5 C1.13636364,13.7318182 2.16193182,14.7727273 3.37556818,14.7727273 L10.2272727,14.7727273 L10.2272727,21.6244318 C10.2272727,22.8380682 11.2681818,23.8636364 12.5,23.8636364 C13.7318182,23.8636364 14.7727273,22.8380682 14.7727273,21.6244318 L14.7727273,14.7727273 L21.6244318,14.7727273 C22.8380682,14.7727273 23.8636364,13.7318182 23.8636364,12.5 C23.8636364,11.2681818 22.8380682,10.2272727 21.6244318,10.2272727 L14.7727273,10.2272727 L14.7727273,3.37556818 C14.7727273,2.16193182 13.7318182,1.13636364 12.5,1.13636364 C11.2681818,1.13636364 10.2272727,2.16193182 10.2272727,3.37556818 L10.2272727,10.2272727 L3.37556818,10.2272727 Z" id="Shape"></path>
            </g>
        </g>
    </g>
</svg>
