<svg width="19px" height="21px" viewBox="0 0 19 21" version="1.1" xmlns="http://www.w3.org/2000/svg" xmlns:xlink="http://www.w3.org/1999/xlink">
    <g id="Page-1" stroke="none" stroke-width="1" fill="none" fill-rule="evenodd">
        <g id="Edit-Fish" transform="translate(-9.000000, -340.000000)" fill="#FFFFFF">
            <g id="logout" transform="translate(9.000000, 340.000000)">
                <path d="M9.31385569,19.7966893 L3.87339531,19.7966893 C2.39486498,19.7966893 1.19521912,18.5844652 1.19521912,17.100382 L1.19521912,3.899618 C1.19521912,2.4110781 2.39929172,1.2033107 3.87339531,1.2033107 L9.40239044,1.2033107 C9.73439575,1.2033107 10,0.935908319 10,0.601655348 C10,0.267402377 9.73439575,0 9.40239044,0 L3.87339531,0 C1.7352811,0 0,1.75148557 0,3.899618 L0,17.100382 C0,19.2529711 1.73970784,21 3.87339531,21 L9.31385569,21 C9.645861,21 9.91146525,20.7325976 9.91146525,20.3983447 C9.91146525,20.0640917 9.64143426,19.7966893 9.31385569,19.7966893 Z" id="Path"></path>
                <path d="M18.8217527,10.516413 L14.9622492,6.19997485 C14.7238417,5.93334172 14.34149,5.93334172 14.1030824,6.19997485 C13.8646748,6.46660797 13.8646748,6.89422714 14.1030824,7.16086027 L16.927987,10.3202113 L4.60726453,10.3202113 C4.26989534,10.3202113 4,10.6220601 4,10.9993711 C4,11.3766822 4.26989534,11.678531 4.60726453,11.678531 L16.927987,11.678531 L14.1030824,14.837882 C13.8646748,15.1045152 13.8646748,15.5321343 14.1030824,15.7987675 C14.220037,15.9295686 14.377476,16 14.5304167,16 C14.6833574,16 14.8407963,15.9345994 14.957751,15.7987675 L18.8172544,11.4823293 C19.0601602,11.2106653 19.0601602,10.7780153 18.8217527,10.516413 Z" id="Path"></path>
            </g>
        </g>
    </g>
</svg>
