<svg width="25px" height="21px" viewBox="0 0 25 21" version="1.1" xmlns="http://www.w3.org/2000/svg" xmlns:xlink="http://www.w3.org/1999/xlink">
    <g id="Page-1" stroke="none" stroke-width="1" fill="none" fill-rule="evenodd">
        <g id="Edit-Fish" transform="translate(-8.000000, -13.000000)" fill="#FFFFFF">
            <g id="clown-fish-(1)" transform="translate(8.000000, 13.000000)">
                <path d="M22.8417072,10.3063881 C22.5398401,9.99429272 22.1651765,9.916306 21.8135816,10.0923332 C21.4620765,10.2685088 21.1764561,10.677382 21.0299208,11.2142277 C20.9533994,11.4946085 21.0287091,11.8245294 21.1981783,11.9513135 C21.3660768,12.0767607 21.5674562,11.9512393 21.6434391,11.6729381 C21.7099971,11.4290254 21.843158,11.2416345 22.0087226,11.1586715 C22.1742873,11.0756342 22.3478856,11.1094284 22.4850408,11.2512157 C22.6427065,11.4143193 22.8503692,11.3348472 22.9488373,11.0740002 C23.0473054,10.8131532 22.9993729,10.4694175 22.8417072,10.3063881 Z" id="Path"></path>
                <path d="M23.3858887,5.88672172 C22.4055664,4.66049489 21.0170898,3.68670882 19.3701172,3.07023354 C18.6941406,2.81668889 17.978125,2.62676874 17.2404785,2.50348372 C16.3809082,1.57831921 15.2916016,0.862493369 14.0809082,0.430569295 C13.2906738,0.148875317 12.473584,0 11.7179199,0 C10.3318848,0 9.31103516,0.480947056 8.91723633,1.31950597 C8.6793457,1.8260935 8.58481445,2.65993577 9.36899414,3.84175591 C7.53779297,4.85031468 5.98046875,6.34067352 4.80209961,8.20615601 C4.24277344,7.57231947 3.71308594,7.09177383 3.22358398,6.77555804 C2.75400391,6.47253882 2.31567383,6.31889668 1.92070312,6.31889668 C1.47666016,6.31889668 0.862109375,6.51288117 0.455908203,7.43714249 C0.153417969,8.12562184 0,9.1560578 0,10.5 C0,11.8437415 0.153417969,12.8741775 0.456005859,13.5626568 C0.862158203,14.4868679 1.47670898,14.681003 1.92084961,14.6810531 C2.31567383,14.6810531 2.75400391,14.527411 3.22373047,14.2242914 C3.71313477,13.908176 4.24282227,13.4276304 4.80214844,12.7937938 C5.98037109,14.6590254 7.53769531,16.1493843 9.36904297,17.1581939 C8.58496094,18.3399137 8.67949219,19.173756 8.91738281,19.6802933 C9.31123047,20.5189024 10.3319824,20.9999498 11.7182617,21 C12.4736816,21 13.2907715,20.8510745 14.0811035,20.5693304 C15.2916992,20.1374063 16.3809082,19.4216306 17.2404785,18.4964661 C17.9782227,18.3731309 18.6942871,18.1832108 19.3706543,17.9294654 C21.0171387,17.3131908 22.4056152,16.3394048 23.3859375,15.1131779 C24.4203125,13.8194128 25,12.17491 25,10.5 C25,8.80271099 24.4418457,7.20753229 23.3858887,5.88672172 Z M13.9410156,1.17815721 C14.6945312,1.45934942 15.3939453,1.86106691 16.0068359,2.36178372 C15.1736816,2.30944906 14.3374023,2.3434691 13.5058594,2.46304102 C13.476123,2.46735624 13.4464844,2.47172165 13.4168457,2.47623758 C12.5488281,2.60730004 11.6766113,2.83430103 10.8480469,3.15347727 C10.8404785,3.15638754 10.8328125,3.1590971 10.8252441,3.16205755 C10.8291992,3.15688931 10.8333008,3.1516709 10.8373047,3.14645248 C11.1449707,2.7486488 11.507666,2.39886456 11.9108398,2.10502774 C12.5009766,1.67491004 13.1758301,1.37465055 13.8763672,1.19426405 C13.8978027,1.18874457 13.9194336,1.18352616 13.9410156,1.17815721 Z M9.57685547,1.64661018 C9.83979492,1.08683497 10.6401855,0.752605623 11.7179687,0.752605623 C12.0149902,0.752605623 12.3235352,0.778647513 12.6367187,0.829527045 C11.0977051,1.50807134 10.2629395,2.58697834 9.86918945,3.25342996 C9.48188477,2.61412412 9.38041992,2.06498645 9.57685547,1.64661018 Z M1.95673828,11.2979657 C1.95683594,11.2998222 1.95688477,11.301729 1.95698242,11.3035855 C1.99980469,12.1395854 2.09003906,13.0178344 2.49052734,13.7634654 C2.49277344,13.7676802 2.49487305,13.7722965 2.49716797,13.7765114 C2.28354492,13.8774676 2.090625,13.9283472 1.92080078,13.9283472 C0.886816406,13.9282468 0.732421875,11.7803177 0.732421875,10.5 C0.732421875,9.21958195 0.886816406,7.07160266 1.92070312,7.07160266 C2.09052734,7.07160266 2.28349609,7.12253236 2.49716797,7.22343842 C2.49487305,7.22765329 2.49282227,7.2322194 2.49052734,7.23648445 C2.03925781,8.07855576 1.96757812,9.1180236 1.94331055,10.0598971 C1.93295898,10.4608117 1.93491211,10.8877181 1.95673828,11.2979657 Z M4.18920898,11.7243703 C4.20644531,11.7578384 4.41831055,12.1054148 4.40351563,12.1227761 C3.94833984,12.6563087 3.51933594,13.0782475 3.12299805,13.3824208 C3.12041016,13.3774533 3.10957031,13.3564793 3.10673828,13.3508093 C2.6824707,12.5053259 2.67001953,11.4291285 2.67001953,10.4999498 C2.67001953,9.73670666 2.70214844,8.96011641 2.89902344,8.22015541 C2.9512207,8.02386277 3.01582031,7.83032988 3.10673828,7.64914054 C3.10957031,7.64347053 3.12045898,7.62244635 3.12299805,7.61747882 C3.51938477,7.92160194 3.94833984,8.34354078 4.40351563,8.87707339 C4.4190918,8.89533783 4.20634766,9.24236234 4.18916016,9.27557954 C3.79287109,10.0422849 3.79287109,10.9576147 4.18920898,11.7243703 Z M9.02236328,14.0360271 C8.82514648,14.08219 8.70175781,14.2839018 8.74667969,14.4865669 C8.87539062,15.0668645 9.03354492,15.6404384 9.22207031,16.2032242 C9.22255859,16.2047797 9.22304687,16.2063352 9.22353516,16.2078405 C7.58374023,15.1919057 6.19951172,13.7470575 5.16425781,11.9685318 C5.05024414,11.7721388 4.94042969,11.5730865 4.8359375,11.371174 C4.55390625,10.8255989 4.55390625,10.1742506 4.83588867,9.628826 C4.94052734,9.4265623 5.05029297,9.22705833 5.16474609,9.03051482 C6.20019531,7.25198916 7.58422852,5.8073918 9.2237793,4.79185841 C8.61020508,6.62317033 8.31591797,8.56472123 8.31591797,10.5 C8.31591797,11.3291758 8.37138672,12.1648245 8.48081055,12.9837641 C8.50830078,13.1896406 8.69267578,13.3340501 8.8934082,13.3053991 C9.08901367,13.2775006 9.23330078,13.0828136 9.20639648,12.881403 C9.10151367,12.0961321 9.04833984,11.2948547 9.04833984,10.5 C9.04833984,8.37093745 9.41953125,6.22431293 10.2053711,4.25074907 C10.2113281,4.2478388 10.2172363,4.24482818 10.2231934,4.24191791 C10.5403809,4.08742276 10.8646973,3.94823162 11.1943848,3.82444483 C11.4949707,3.71159663 11.7998535,3.61199518 12.1083984,3.52478746 C12.1210937,3.52122489 12.1337891,3.51766232 12.1465332,3.51409975 C12.1416016,3.52328215 12.1369141,3.53261508 12.1320312,3.54179749 C11.2571289,5.18765501 10.7566406,7.03196278 10.5740234,8.89348128 C10.5216797,9.42716442 10.4956055,9.96355712 10.4956055,10.4999498 C10.4956055,12.4322681 10.8286133,14.3733675 11.5368652,16.1666452 C11.7112305,16.6081029 11.9083984,17.0418333 12.1324219,17.4591057 C12.1371582,17.467987 12.1416992,17.4769687 12.1464355,17.4858501 C12.1339355,17.4823879 12.1214844,17.4788755 12.1090332,17.4754132 C11.4615234,17.2930197 10.8294922,17.0534744 10.2227539,16.7580319 C10.2168457,16.7551718 10.2109863,16.7521612 10.2050781,16.7493011 C10.1805176,16.7373088 10.1482422,16.6051424 10.1358887,16.5729789 C9.85493164,15.8414477 9.63085937,15.0860321 9.46079102,14.3193769 C9.41586914,14.1167118 9.21967773,13.9897137 9.02236328,14.0360271 Z M11.7182617,20.247294 C11.7181152,20.247294 11.7180664,20.247294 11.7179687,20.247294 C10.6402832,20.2472438 9.83994141,19.9129643 9.57700195,19.3530888 C9.38056641,18.9347627 9.48208008,18.3857253 9.86923828,17.7464697 C10.2629883,18.4129213 11.0977539,19.4917781 12.6366699,20.1703224 C12.3235352,20.2211518 12.0151855,20.247294 11.7182617,20.247294 Z M13.9409668,19.8216923 C13.1699219,19.6314209 12.4208984,19.3021089 11.7894531,18.8041518 C11.4374512,18.5265723 11.1140625,18.2112096 10.8376953,17.8539489 C10.8335937,17.8486302 10.8293945,17.8432612 10.8253418,17.8379425 C10.8322754,17.8406018 10.8392578,17.8431107 10.8461914,17.8457701 C11.6652344,18.1610827 12.5163574,18.3863776 13.3813965,18.5187949 C14.2497559,18.6517139 15.1305176,18.6930096 16.0068359,18.6379654 C15.3939453,19.1387826 14.6945312,19.5405001 13.9409668,19.8216923 Z M17.2643066,17.7299614 C17.1005371,17.3938755 16.9496094,17.0507147 16.8120605,16.7024357 C16.0369629,14.7401115 15.6755859,12.6142603 15.6755859,10.5 C15.6755859,9.26193139 15.8012207,8.03695898 16.0489746,6.85905266 C16.0916992,6.65593595 15.9661133,6.45562915 15.768457,6.41172423 C15.5808105,6.3700271 15.3757324,6.49737646 15.3331055,6.70004158 C15.0743652,7.92998151 14.9432129,9.20849282 14.9432129,10.4999498 C14.9432129,13.0104082 15.4406738,15.5353677 16.4869629,17.8096928 C16.4916016,17.8197282 16.4961914,17.8297636 16.5008301,17.839799 C16.086377,17.8852092 15.667041,17.9085917 15.2484863,17.9085917 C14.5897461,17.9085917 13.1375,17.7280547 13.1276367,17.7120482 C13.121582,17.7023139 13.1154297,17.6926799 13.1094238,17.6828954 C12.1233398,16.0774805 11.554834,14.2160624 11.3345215,12.3382363 C11.2631836,11.7301406 11.2282227,11.1176293 11.2280273,10.5051682 C11.2280273,10.503412 11.2280273,10.501706 11.2280273,10.4999498 C11.2280273,8.63316273 11.5558594,6.73797543 12.2569336,5.0125371 C12.4682129,4.49250211 12.7166016,3.99148424 12.9958008,3.50667355 C13.0158203,3.4724528 13.1217773,3.29743524 13.1276855,3.28785142 C13.1582031,3.28218141 13.2604492,3.26331484 13.2811035,3.25975227 C13.9297852,3.14810833 14.5901367,3.0913079 15.2485352,3.0913079 C15.6671387,3.0913079 16.0865234,3.11469041 16.5010742,3.16010064 C16.2970703,3.59779508 15.7888672,4.97169297 15.7165527,5.20978309 C15.7162109,5.21088699 15.7158203,5.21199088 15.7154785,5.21309478 C15.6554687,5.40913652 15.7647461,5.62359325 15.9548828,5.68506014 C16.1478516,5.74758075 16.3534668,5.63729159 16.4141113,5.43904205 C16.6094727,4.80109099 16.845459,4.17528278 17.1227539,3.57014752 C17.1688477,3.46949235 17.2161621,3.36948948 17.2645996,3.26998839 C17.7600098,3.35935372 18.2438477,3.48108325 18.7097656,3.63362149 C18.6770508,3.69624246 18.6447754,3.75926483 18.6130371,3.82258828 C17.5839844,5.87367568 17.1229492,8.20123866 17.1229492,10.5 C17.1229492,12.8726721 17.6123047,15.267372 18.7098145,17.3663283 C18.24375,17.5188164 17.7599121,17.6405459 17.2643066,17.7299614 Z M23.0822266,12.2576018 C23.415918,12.3519849 23.7396973,12.3878113 23.9948242,12.3988502 C23.3832031,14.460525 21.7668945,16.145922 19.4081543,17.1095723 C19.3987793,17.0921107 19.3518066,17.0034981 19.3378418,16.976553 C18.5552246,15.4669262 18.1021484,13.7890055 17.9337891,12.0908635 C17.8813965,11.5624489 17.8553223,11.0311241 17.8553223,10.4999498 C17.8553223,8.74084269 18.1366699,6.95348587 18.7626465,5.31269623 C18.948584,4.82527633 19.1627441,4.34934698 19.4081055,3.89042765 C22.4575684,5.13617335 24.2675781,7.58762347 24.2675781,10.5 C24.2675781,10.8924849 24.2335938,11.276239 24.1692871,11.6501584 C23.9475586,11.6491047 23.6149414,11.6276289 23.2765625,11.5319413 C23.0816895,11.4767967 22.8799316,11.5944619 22.8263184,11.7949192 C22.7726563,11.9952762 22.887207,12.2024572 23.0822266,12.2576018 Z" id="Shape" fill-rule="nonzero"></path>
            </g>
        </g>
    </g>
</svg>
