<svg width="25px" height="22px" viewBox="0 0 25 22" version="1.1" xmlns="http://www.w3.org/2000/svg" xmlns:xlink="http://www.w3.org/1999/xlink">
    <g id="Page-1" stroke="none" stroke-width="1" fill="none" fill-rule="evenodd">
        <g id="Give-Order" transform="translate(-7.000000, -94.000000)" fill="#FFFFFF">
            <g id="give-money" transform="translate(7.000000, 94.000000)">
                <g id="Group" transform="translate(12.096774, 0.000000)">
                    <path d="M6.75648593,5.94586107 C6.02882636,5.65570917 5.81859986,5.4802526 5.81859986,5.16340672 C5.81859986,4.9098481 6.01166781,4.61362007 6.55600549,4.61362007 C7.03747426,4.61362007 7.40672615,4.80245776 7.41002059,4.80409626 C7.44886754,4.82471412 7.49245024,4.83570575 7.53562114,4.83570575 C7.64097461,4.83570575 7.73417982,4.77228196 7.77282086,4.67410821 L7.90507893,4.33780509 C7.95113246,4.21525858 7.88126287,4.10848268 7.7921757,4.07018263 C7.49574468,3.94183308 6.91640357,3.84249872 6.91050103,3.84147465 C6.90116678,3.83983615 6.86870281,3.83294077 6.86870281,3.79518689 L6.86684969,3.30732207 C6.86684969,3.1604028 6.74351407,3.04079194 6.59210707,3.04079194 L6.35483871,3.04079194 C6.20356898,3.04079194 6.08030199,3.16033453 6.08030199,3.30739034 L6.0809197,3.82031063 C6.0809197,3.85963475 6.03809197,3.87670251 6.02244338,3.88032087 C5.29114619,4.05359276 4.83411119,4.5864482 4.83411119,5.25857655 C4.83411119,6.09646697 5.53040494,6.47509814 6.28222375,6.75931046 C6.88325326,6.99402628 7.12841455,7.23201912 7.12841455,7.58108892 C7.12841455,7.96094897 6.78119423,8.22625021 6.2837337,8.22625021 C5.85895676,8.22625021 5.28407687,7.95842294 5.27838023,7.9556921 C5.24159231,7.93835125 5.2026081,7.92961256 5.16252574,7.92961256 C5.05312286,7.92961256 4.95785861,7.99542584 4.91976664,8.0973545 L4.79347975,8.4374808 C4.748593,8.56446493 4.81770762,8.66755419 4.90617708,8.71343233 C5.2592313,8.89633043 5.94241592,9.00351596 5.97282086,9.00822666 C5.98098833,9.00938727 6.02258065,9.023929 6.02258065,9.06175115 L6.02258065,9.5724185 C6.02258065,9.71933777 6.14591627,9.83894863 6.2973919,9.83894863 L6.54255319,9.83894863 C6.69409746,9.83894863 6.81743308,9.71940604 6.81743308,9.5724185 L6.81743308,9.03498891 C6.81743308,8.98474142 6.85470144,8.98030381 6.86238847,8.97846049 C7.64145504,8.80436935 8.12134523,8.23737839 8.12134523,7.52544803 C8.12113933,6.79419696 7.71290323,6.32169312 6.75648593,5.94586107 Z" id="Path"></path>
                    <path d="M6.45017159,0.0347499573 C2.89382292,0.0347499573 0.011050103,2.90247483 0.011050103,6.43980201 C0.011050103,9.97719747 2.89382292,12.8449906 6.45017159,12.8449906 C10.006383,12.8449906 12.8892244,9.97719747 12.8892244,6.43980201 C12.8892244,2.90247483 10.006383,0.0347499573 6.45017159,0.0347499573 Z M6.45017159,11.3605735 C3.71798216,11.3605735 1.50329444,9.15739887 1.50329444,6.43987029 C1.50329444,3.7223417 3.71798216,1.51923536 6.45017159,1.51923536 C9.18222375,1.51923536 11.3968428,3.7223417 11.3968428,6.43987029 C11.3968428,9.15739887 9.18222375,11.3605735 6.45017159,11.3605735 Z" id="Shape" fill-rule="nonzero"></path>
                </g>
                <g id="Group" transform="translate(0.000000, 13.709677)">
                    <path d="M23.643169,2.58984154 C22.2382394,3.36877476 20.3059155,4.08899264 18.3788732,4.3926146 C16.6643662,4.66270515 13.4388732,4.01131862 13.4388732,3.24200623 C13.4388732,2.95048104 16.2677465,3.96031409 17.9789437,3.50169779 C19.2911268,3.15004244 19.1048592,1.91702037 18.3911268,1.75438596 C17.6815493,1.59260045 13.5243662,0.0627475948 11.748662,0.00997453311 C10.9121831,-0.0148556876 8.84704225,0.302207131 7.84774648,0.465690436 C7.50542254,0.521646859 7.29077465,0.51549236 7.2693662,0.844581211 C7.16992958,2.37400962 6.97394366,5.50162705 6.86711268,7.13532824 C6.86485915,7.16985003 6.91260563,7.6340549 7.29394366,7.30737125 C7.71133803,6.94984437 8.29676056,6.55355122 8.83823944,6.67692417 C9.68774648,6.87054329 17.0371127,8.22304754 18.0508451,7.98634692 C19.5010563,7.64770798 23.606338,5.20380589 24.3934507,4.44418506 C25.6134507,3.26655348 24.6650704,2.02327391 23.643169,2.58984154 Z" id="Path"></path>
                    <path d="M5.24126761,0.406055461 L1.39112676,0.215478212 C1.09387324,0.200764007 0.79028169,0.425792303 0.716408451,0.715336729 L0.0163380282,7.10009904 C-0.0574647887,7.3897142 0.125492958,7.63617714 0.422887324,7.64770798 L4.68978873,7.64728353 C4.98725352,7.65881437 5.24908451,7.42437748 5.27190141,7.12627334 L5.74049296,0.974745331 C5.76316901,0.676711941 5.53852113,0.420769666 5.24126761,0.406055461 Z M2.97464789,6.80142898 C2.38669014,6.80142898 1.91014085,6.32265139 1.91014085,5.73210243 C1.91014085,5.14148274 2.38676056,4.66277589 2.97464789,4.66277589 C3.56253521,4.66277589 4.03915493,5.14155348 4.03915493,5.73210243 C4.03915493,6.32272213 3.56260563,6.80142898 2.97464789,6.80142898 Z" id="Shape" fill-rule="nonzero"></path>
                </g>
            </g>
        </g>
    </g>
</svg>
